<?xml version="1.0" encoding="UTF-8"?> <svg xmlns="http://www.w3.org/2000/svg" viewBox="0 0 157.14 72.25"> <defs> <style>.cls-1{fill:#fff;}</style> </defs> <g id="Layer_2" data-name="Layer 2"> <g id="Слой_1" data-name="Слой 1"> <path class="cls-1" d="M29.36,14.28A28.84,28.84,0,0,0,12.55,19.4V10.6A10.59,10.59,0,0,0,2,0H0V43.27H0A29,29,0,0,0,12.55,67.13V43.27h0a16.44,16.44,0,1,1,8.88,14.6V71.25a29,29,0,1,0,7.91-57Z"></path> <ellipse class="cls-1" cx="29" cy="43.26" rx="7.48" ry="7.49" transform="translate(-22.11 33.23) rotate(-45.06)"></ellipse> <path class="cls-1" d="M76.43,25.77c3.18,0,5.66,2.49,5.66,6.36s-2.48,6.44-5.66,6.44a4.86,4.86,0,0,1-4.09-2v1.77H69.21V21.81h3.13v6A4.8,4.8,0,0,1,76.43,25.77Zm-.82,2.75a3.35,3.35,0,0,0-3.27,3.65,3.3,3.3,0,1,0,6.55,0A3.31,3.31,0,0,0,75.61,28.52Z"></path> <path class="cls-1" d="M89.23,25.77a4.92,4.92,0,0,1,4.1,2V26h3.15v12.4H93.33V36.56a4.9,4.9,0,0,1-4.12,2c-3.13,0-5.64-2.57-5.64-6.44S86.08,25.77,89.23,25.77ZM90,28.52a3.31,3.31,0,0,0-3.27,3.61A3.39,3.39,0,0,0,90,35.82a3.34,3.34,0,0,0,3.29-3.65A3.34,3.34,0,0,0,90,28.52Z"></path> <path class="cls-1" d="M108.23,31.52c0-2-1.1-3.06-2.75-3.06s-2.8,1.07-2.8,3.06v6.85H99.55V26h3.13v1.55a4.65,4.65,0,0,1,3.74-1.73c2.88,0,4.94,1.88,4.94,5.31v7.27h-3.13Z"></path> <path class="cls-1" d="M114.34,21.81h3.13v9.42L121.63,26h4.08l-5.46,6.22,5.5,6.18h-4.07l-4.21-5.28v5.28h-3.13Z"></path> <path class="cls-1" d="M130.54,38.37h-3.13V26h3.13V27.9a4.29,4.29,0,0,1,3.8-2.11v3.29h-.82c-1.86,0-3,.72-3,3.11Z"></path> <path class="cls-1" d="M142,38.57a6.07,6.07,0,0,1-6.29-6.4,6.38,6.38,0,1,1,12.76,0A6.2,6.2,0,0,1,142,38.57Zm0-2.73c1.66,0,3.25-1.21,3.25-3.67s-1.55-3.67-3.2-3.67-3.16,1.19-3.16,3.67S140.27,35.84,142,35.84Z"></path> <path class="cls-1" d="M151.22,28.55h-1.48V26h1.48V22.91h3.15V26h2.77v2.58h-2.77v6c0,.83.34,1.19,1.32,1.19h1.45v2.64h-2c-2.38,0-4-1-4-3.85Z"></path> <path class="cls-1" d="M75.83,48.28c3.29,0,5.82,2.46,5.82,6.29s-2.53,6.37-5.82,6.37a5.29,5.29,0,0,1-4.59-2.46v8.08h-2V48.48h2v2.26A5.18,5.18,0,0,1,75.83,48.28Zm-.43,1.77a4.21,4.21,0,0,0-4.16,4.54c0,2.89,2,4.56,4.16,4.56s4.17-1.7,4.17-4.58S77.66,50.05,75.4,50.05Z"></path> <path class="cls-1" d="M84.33,44.19h2V60.74h-2Z"></path> <path class="cls-1" d="M94.89,48.28a5.09,5.09,0,0,1,4.57,2.44V48.48h2.06V60.74H99.46V58.46a5.13,5.13,0,0,1-4.59,2.48c-3.26,0-5.79-2.57-5.79-6.37S91.61,48.28,94.89,48.28Zm.41,1.77c-2.24,0-4.14,1.63-4.14,4.52s1.9,4.58,4.14,4.58,4.16-1.67,4.16-4.56A4.2,4.2,0,0,0,95.3,50.05Z"></path> <path class="cls-1" d="M110.18,48.28c3,0,5,1.57,5.66,4.14h-2.19A3.35,3.35,0,0,0,110.18,50c-2.24,0-3.9,1.59-3.9,4.59s1.66,4.63,3.9,4.63a3.29,3.29,0,0,0,3.47-2.41h2.19a5.46,5.46,0,0,1-5.66,4.13c-3.49,0-6-2.46-6-6.35S106.69,48.28,110.18,48.28Z"></path> <path class="cls-1" d="M123.85,60.94c-3.49,0-6.06-2.46-6.06-6.35s2.48-6.31,6.06-6.31a5.62,5.62,0,0,1,5.88,5.86,12.21,12.21,0,0,1-.06,1.23h-9.8a3.85,3.85,0,0,0,4,3.85A3.36,3.36,0,0,0,127.29,57h2.2A5.52,5.52,0,0,1,123.85,60.94Zm-4-7.22h7.74A3.6,3.6,0,0,0,123.76,50,3.8,3.8,0,0,0,119.89,53.72Z"></path> </g> </g> </svg> 