<?xml version="1.0" encoding="UTF-8"?> <svg xmlns="http://www.w3.org/2000/svg" width="58" height="73" viewBox="0 0 58 73" fill="none"> <path d="M29.36 14.28C23.3605 14.1965 17.4843 15.9862 12.55 19.4V10.6C12.5527 7.79654 11.4436 5.10641 9.46595 3.11939C7.48829 1.13236 4.80344 0.0105878 2 0H0V43.27C0.00372479 47.966 1.14779 52.5909 3.33386 56.747C5.51993 60.9031 8.6826 64.4662 12.55 67.13V43.27C12.5503 39.6833 13.7236 36.195 15.891 33.3372C18.0583 30.4793 21.1008 28.4087 24.5546 27.441C28.0083 26.4733 31.6838 26.6617 35.0205 27.9774C38.3572 29.2931 41.1721 31.6639 43.036 34.7283C44.8998 37.7928 45.7104 41.3827 45.344 44.9507C44.9776 48.5187 43.4544 51.8689 41.0067 54.4907C38.559 57.1124 35.321 58.8616 31.7865 59.4718C28.2521 60.0819 24.615 59.5194 21.43 57.87V71.25C25.4025 72.3198 29.5571 72.5322 33.618 71.8729C37.6788 71.2137 41.5529 69.698 44.983 67.4266C48.4131 65.1551 51.3206 62.1798 53.5125 58.6983C55.7043 55.2168 57.1304 51.3088 57.6959 47.2338C58.2614 43.1589 57.9534 39.0102 56.7923 35.0635C55.6313 31.1167 53.6438 27.4621 50.9619 24.3424C48.2799 21.2228 44.9649 18.7095 41.237 16.9694C37.5091 15.2293 33.4537 14.3023 29.34 14.25L29.36 14.28Z" fill="white"></path> <path d="M34.2978 48.5505C37.2159 45.6263 37.2078 40.8871 34.2797 37.9651C31.3516 35.0432 26.6124 35.045 23.6943 37.9692C20.7762 40.8933 20.7844 45.6326 23.7124 48.5545C26.6405 51.4765 31.3798 51.4747 34.2978 48.5505Z" fill="white"></path> </svg> 