<?xml version="1.0" encoding="UTF-8"?> <svg xmlns="http://www.w3.org/2000/svg" width="41" height="41" viewBox="0 0 41 41" fill="none"> <path fill-rule="evenodd" clip-rule="evenodd" d="M20.4746 40.9966C31.5203 40.9966 40.4746 32.0423 40.4746 20.9966C40.4746 9.95089 31.5203 0.996582 20.4746 0.996582C9.42891 0.996582 0.474609 9.95089 0.474609 20.9966C0.474609 32.0423 9.42891 40.9966 20.4746 40.9966ZM10.1214 29.1508C10.5519 29.5813 11.0696 29.7965 11.6746 29.7965H29.2746C29.8796 29.7965 30.3977 29.5813 30.8289 29.1508C31.2594 28.7196 31.4746 28.2015 31.4746 27.5965V14.3965C31.4746 13.7915 31.2594 13.2738 30.8289 12.8433C30.3977 12.4121 29.8796 12.1965 29.2746 12.1965H11.6746C11.0696 12.1965 10.5519 12.4121 10.1214 12.8433C9.69021 13.2738 9.47461 13.7915 9.47461 14.3965V27.5965C9.47461 28.2015 9.69021 28.7196 10.1214 29.1508ZM20.7628 21.8622C20.6623 21.8901 20.5663 21.904 20.4746 21.904C20.3829 21.904 20.2869 21.8901 20.1864 21.8622C20.0852 21.8351 19.9888 21.794 19.8971 21.739L12.1146 16.8715C11.9679 16.7982 11.8579 16.6926 11.7846 16.5547C11.7113 16.4176 11.6746 16.2574 11.6746 16.074C11.6746 15.7257 11.8304 15.4551 12.1421 15.2622C12.4538 15.0701 12.7746 15.0749 13.1046 15.2765L20.4746 19.8965L27.8446 15.2765C28.1746 15.0749 28.4954 15.0657 28.8071 15.249C29.1188 15.4324 29.2746 15.7074 29.2746 16.074C29.2746 16.239 29.2379 16.3905 29.1646 16.5283C29.0913 16.6655 28.9813 16.7799 28.8346 16.8715L21.0521 21.739C20.9604 21.794 20.864 21.8351 20.7628 21.8622Z" fill="white"></path> </svg> 