<?xml version="1.0" encoding="UTF-8"?> <svg xmlns="http://www.w3.org/2000/svg" width="41" height="41" viewBox="0 0 41 41" fill="none"> <path fill-rule="evenodd" clip-rule="evenodd" d="M20.8135 40.3589C31.8592 40.3589 40.8135 31.4046 40.8135 20.3589C40.8135 9.31319 31.8592 0.358887 20.8135 0.358887C9.76778 0.358887 0.813477 9.31319 0.813477 20.3589C0.813477 31.4046 9.76778 40.3589 20.8135 40.3589ZM8.28382 18.5216L30.8138 9.83362C31.8419 9.36853 32.8356 10.0814 32.4429 11.6558L28.6066 29.7358C28.3385 31.0217 27.5646 31.3267 26.487 30.7333L20.6429 26.4166L17.8333 29.1487C17.8229 29.1588 17.8124 29.1689 17.8021 29.1789C17.4887 29.482 17.2288 29.7332 16.663 29.7332L17.062 23.771L17.0595 23.7697H17.062L27.9051 13.9838C28.3804 13.5619 27.8022 13.3548 27.1694 13.7398L13.7861 22.1838L8.00172 20.3794C6.75514 19.9969 6.74624 19.1392 8.28382 18.5216Z" fill="white"></path> </svg> 