<?xml version="1.0" encoding="UTF-8"?> <svg xmlns="http://www.w3.org/2000/svg" width="41" height="41" viewBox="0 0 41 41" fill="none"> <path fill-rule="evenodd" clip-rule="evenodd" d="M20.4463 40.3589C31.4919 40.3589 40.4463 31.4048 40.4463 20.3589C40.4463 9.31299 31.4919 0.358887 20.4463 0.358887C9.40039 0.358887 0.446289 9.31299 0.446289 20.3589C0.446289 31.4048 9.40039 40.3589 20.4463 40.3589ZM11.938 24.894L10.4507 30.3589L15.9131 28.8682C17.5928 29.8477 19.5024 30.3618 21.4463 30.3589C27.5215 30.3589 32.4463 25.4341 32.4463 19.3589C32.4463 13.2837 27.5215 8.35889 21.4463 8.35889C15.3711 8.35889 10.4463 13.2837 10.4463 19.3589C10.4429 21.3037 10.958 23.2144 11.938 24.894ZM17.0684 14.3076C17.1953 14.2441 17.3345 14.2065 17.4766 14.1978C17.5625 14.1909 17.6489 14.188 17.7354 14.188C17.7969 14.188 17.8584 14.1895 17.9199 14.1924C17.979 14.1968 18.0386 14.2031 18.0977 14.21C18.2729 14.2305 18.4653 14.3364 18.5303 14.4839C18.6821 14.8281 18.832 15.1733 18.9795 15.52C19.1509 15.9219 19.3193 16.3247 19.4849 16.729C19.5532 16.895 19.5127 17.1094 19.3828 17.3184C19.2935 17.46 19.1968 17.5972 19.0933 17.7285C18.9692 17.8872 18.7017 18.1797 18.7017 18.1797C18.7017 18.1797 18.6577 18.2324 18.6362 18.3125C18.624 18.3584 18.6196 18.4126 18.6348 18.4712C18.6626 18.5508 18.7002 18.6265 18.7471 18.6968L18.812 18.8013C19.124 19.3125 19.501 19.7817 19.9336 20.1958C20.0659 20.3237 20.1943 20.4556 20.333 20.5767C20.8481 21.0308 21.4309 21.4019 22.0601 21.6768L22.0657 21.6787C22.1592 21.7192 22.2063 21.7417 22.3428 21.7988C22.4109 21.8276 22.4812 21.8521 22.553 21.8711C22.627 21.8901 22.7051 21.8867 22.7771 21.8613C22.8188 21.8467 22.8577 21.8247 22.8918 21.7969C22.9165 21.7769 22.9387 21.7539 22.9578 21.7285C23.7529 20.7646 23.8267 20.7021 23.8323 20.7021C23.8875 20.6523 23.9534 20.6133 24.0249 20.5894C24.0967 20.5654 24.1729 20.5566 24.248 20.5645C24.2795 20.5659 24.3105 20.5698 24.3411 20.5767C24.3757 20.584 24.4099 20.5952 24.4426 20.6094C25.0269 20.876 25.9839 21.2925 25.9839 21.2925L26.624 21.5796C26.7307 21.6313 26.8286 21.7534 26.833 21.8711L26.8337 21.8853C26.8369 21.96 26.8423 22.0776 26.8176 22.2817C26.7986 22.4365 26.7644 22.6089 26.7234 22.7627C26.689 22.8911 26.6499 23.0063 26.6108 23.0879C26.5503 23.2144 26.4712 23.3257 26.3799 23.4199C26.2566 23.5488 26.1653 23.627 26.0168 23.7368C25.9265 23.8052 25.8794 23.8359 25.8794 23.8359C25.7427 23.9229 25.6021 24.0039 25.458 24.0776C25.1748 24.2285 24.8621 24.3154 24.5417 24.332C24.4392 24.3369 24.3369 24.3433 24.2349 24.3472C24.1333 24.3506 24.0317 24.3516 23.9302 24.3462L23.3042 24.2505C21.7402 23.8394 20.2939 23.0684 19.0801 22C18.8755 21.8193 18.6836 21.6274 18.4902 21.4346L18.3672 21.3115C17.3896 20.3379 16.6494 19.2876 16.1992 18.2954C15.9795 17.8047 15.8384 17.2798 15.8364 16.7407C15.8325 16.0737 16.0513 15.4243 16.458 14.895C16.4888 14.8545 16.519 14.814 16.5522 14.772C16.6045 14.7051 16.6641 14.6348 16.7451 14.5586C16.8398 14.46 16.9487 14.3755 17.0684 14.3076Z" fill="white"></path> </svg> 